<svg width="30" height="30" viewBox="0 0 30 30" fill="none" xmlns="http://www.w3.org/2000/svg">
<path d="M17.4311 28.7873C19.2416 28.4681 20.9716 27.7953 22.5222 26.8075C24.0728 25.8197 25.4136 24.5361 26.4681 23.0301C27.5227 21.5241 28.2702 19.8251 28.6681 18.0302C29.0661 16.2352 29.1066 14.3795 28.7873 12.5689C28.4681 10.7583 27.7953 9.02838 26.8075 7.4778C25.8197 5.92722 24.5361 4.58639 23.0301 3.53187C21.5241 2.47735 19.8251 1.72978 18.0302 1.33186C16.2352 0.93393 14.3795 0.893438 12.5689 1.21269C10.7583 1.53195 9.02838 2.20469 7.4778 3.19252C5.92722 4.18035 4.58639 5.46392 3.53187 6.96993C2.47735 8.47595 1.72978 10.1749 1.33186 11.9698C0.93393 13.7648 0.893438 15.6205 1.21269 17.4311C1.53195 19.2417 2.20469 20.9716 3.19252 22.5222C4.18035 24.0728 5.46392 25.4136 6.96993 26.4681C8.47595 27.5227 10.1749 28.2702 11.9698 28.6681C13.7648 29.0661 15.6205 29.1066 17.4311 28.7873L17.4311 28.7873Z" stroke="#3F72AF" stroke-width="2"/>
<path d="M15 15L15 23.4" stroke="#3F72AF" stroke-width="2" stroke-linecap="square"/>
<path d="M15 8L15 6.6" stroke="#3F72AF" stroke-width="2" stroke-linecap="square"/>
</svg>
