<svg width="23" height="28" viewBox="0 0 23 28" fill="none" xmlns="http://www.w3.org/2000/svg">
<path d="M11.5 27C12.8789 27 14.2443 26.7263 15.5182 26.1946C16.7921 25.6629 17.9496 24.8836 18.9246 23.9012C19.8996 22.9187 20.6731 21.7524 21.2007 20.4688C21.7284 19.1852 22 17.8078 22 16.4184C22 9.13101 18.1137 5.10564 17.3015 4.34399C17.2159 4.26369 17.0895 4.26573 17.0039 4.34607C16.769 4.5666 16.2807 5.05655 15.7043 5.81592C15.6023 5.95023 15.3984 5.94693 15.302 5.80851C13.4055 3.0844 11.3375 1.43935 10.8166 1.04687C10.7409 0.989807 10.6438 0.983971 10.5634 1.03419C9.41618 1.75095 1 7.31942 1 16.42C1 17.8094 1.27159 19.1852 1.79926 20.4688C2.32694 21.7524 3.10036 22.9187 4.07538 23.9012C5.05039 24.8836 6.2079 25.6629 7.48182 26.1946C8.75574 26.7263 10.1211 27 11.5 27ZM11.5 27C14.6225 27 17.1538 24.4482 17.1538 21.3019C17.1538 21.2593 17.1534 21.2168 17.1525 21.1744C17.0645 16.8031 12.4984 13.1108 11.6387 12.4538C11.5562 12.3908 11.4437 12.3908 11.3612 12.4539C10.493 13.1173 5.84609 16.8754 5.84606 21.3023M11.5 27C8.37763 27 5.84632 24.4484 5.84606 21.3023M5.84606 21.3023C5.84606 21.3023 5.84603 21.3023 5.84606 21.3023Z" stroke="#3F72AF" stroke-width="2" stroke-linejoin="round"/>
</svg>
