<svg width="18" height="17" viewBox="0 0 18 17" fill="none" xmlns="http://www.w3.org/2000/svg">
<path d="M17 8.05882C17 10.0557 15.9534 11.7778 14.6173 13.1627C11.5837 16.3069 6.41631 16.3069 3.38273 13.1627C2.04662 11.7778 1 10.0557 1 8.05882C1 3.82353 4.87627 1 9 1C13.2667 1 17 3.82353 17 8.05882Z" stroke="#3F72AF" stroke-width="2"/>
<path d="M5.23252 8.97053L6.39821 9.99908C7.88439 11.3104 10.1143 11.3104 11.6005 9.99909L12.7662 8.97054C13.6499 8.19076 13.7838 6.86182 13.0733 5.92147L12.2695 4.85757C11.717 4.12635 10.6058 4.16656 10.1076 4.93581C9.58725 5.73935 8.41145 5.73935 7.89105 4.93581C7.39288 4.16656 6.28173 4.12635 5.72925 4.85757L4.92541 5.92147C4.21493 6.86182 4.34878 8.19076 5.23252 8.97053Z" stroke="#3F72AF" stroke-width="2"/>
</svg>
