<svg width="30" height="30" viewBox="0 0 30 30" fill="none" xmlns="http://www.w3.org/2000/svg">
<path d="M6.36331 8.73021C6.42731 8.1542 6.45931 7.86619 6.50282 7.61808C7.14128 3.97759 10.1905 1.24837 13.8793 1.01585C14.1307 1 14.4204 1 15 1V1C15.5796 1 15.8693 1 16.1207 1.01585C19.8095 1.24837 22.8587 3.97759 23.4972 7.61808C23.5407 7.86619 23.5727 8.1542 23.6367 8.73021L24.0284 12.2554C24.14 13.2599 24.1958 13.7622 24.3126 14.2489C24.4247 14.7154 24.5784 15.171 24.7721 15.61C24.9741 16.068 25.2341 16.5013 25.7541 17.3679L27.1826 19.7488C27.9884 21.0917 28.3912 21.7632 28.104 22.2705C27.8168 22.7778 27.0337 22.7778 25.4676 22.7778H4.53238C2.96627 22.7778 2.18322 22.7778 1.89599 22.2705C1.60876 21.7632 2.01164 21.0917 2.81739 19.7488L4.24591 17.3679C4.76589 16.5013 5.02588 16.068 5.2279 15.61C5.42156 15.171 5.57533 14.7154 5.68735 14.2489C5.80421 13.7622 5.86001 13.2599 5.97162 12.2554L6.36331 8.73021Z" stroke="#3F72AF" stroke-width="2"/>
<path d="M8.77772 22.7778C8.77772 23.5949 8.93867 24.404 9.25136 25.1589C9.56406 25.9138 10.0224 26.5998 10.6002 27.1776C11.178 27.7553 11.8639 28.2137 12.6188 28.5264C13.3737 28.8391 14.1828 29 14.9999 29C15.8171 29 16.6262 28.8391 17.3811 28.5264C18.136 28.2137 18.8219 27.7553 19.3997 27.1776C19.9775 26.5998 20.4358 25.9138 20.7485 25.1589C21.0612 24.404 21.2222 23.5949 21.2222 22.7778" stroke="#3F72AF" stroke-width="2" stroke-linecap="round"/>
</svg>
