<svg width="12" height="12" viewBox="0 0 12 12" fill="none" xmlns="http://www.w3.org/2000/svg">
<path d="M6 0.5C7.40959 0.5 8.49983 1.56824 8.5 2.82324C8.5 4.07837 7.4097 5.14746 6 5.14746C4.5903 5.14746 3.5 4.07837 3.5 2.82324C3.50017 1.56824 4.59041 0.5 6 0.5Z" fill="#F9F7F7" stroke="#3F72AF"/>
<path opacity="0.6" d="M4.0332 6.85303H7.9668C9.91803 6.85325 11.4998 8.435 11.5 10.3862C11.5 11.0011 11.0016 11.5004 10.3867 11.5005H1.61328C0.998418 11.5004 0.5 11.0011 0.5 10.3862C0.500215 8.49592 1.98475 6.95266 3.85156 6.85791L4.0332 6.85303Z" fill="#F9F7F7" stroke="#3F72AF"/>
<path opacity="0.6" d="M4.0332 6.85303H7.9668C9.91803 6.85325 11.4998 8.435 11.5 10.3862C11.5 11.0011 11.0016 11.5004 10.3867 11.5005H1.61328C0.998418 11.5004 0.5 11.0011 0.5 10.3862C0.500215 8.49592 1.98475 6.95266 3.85156 6.85791L4.0332 6.85303Z" fill="#F9F7F7" stroke="#3F72AF"/>
</svg>
