<svg width="4" height="16" viewBox="0 0 4 16" fill="none" xmlns="http://www.w3.org/2000/svg">
<path d="M4 1.84615C4 2.86576 3.10457 3.69231 2 3.69231C0.89543 3.69231 0 2.86576 0 1.84615C0 0.826551 0.89543 0 2 0C3.10457 0 4 0.826551 4 1.84615Z" fill="#3F72AF"/>
<path d="M4 8C4 9.0196 3.10457 9.84615 2 9.84615C0.89543 9.84615 0 9.0196 0 8C0 6.9804 0.89543 6.15385 2 6.15385C3.10457 6.15385 4 6.9804 4 8Z" fill="#3F72AF"/>
<path d="M4 14.1538C4 15.1734 3.10457 16 2 16C0.89543 16 0 15.1734 0 14.1538C0 13.1342 0.89543 12.3077 2 12.3077C3.10457 12.3077 4 13.1342 4 14.1538Z" fill="#3F72AF"/>
</svg>
