<svg width="17" height="18" viewBox="0 0 17 18" fill="none" xmlns="http://www.w3.org/2000/svg">
<path d="M8.77544 3.70915L10.293 2.09411C10.9041 1.44373 11.2097 1.11855 11.5736 1.03247C11.7566 0.989178 11.9462 0.989178 12.1292 1.03247C12.4931 1.11855 12.7987 1.44373 13.4098 2.09411C14.0205 2.74404 14.3258 3.069 14.4067 3.45593C14.4473 3.6505 14.4473 3.8522 14.4067 4.04678C14.3258 4.43371 14.0205 4.75867 13.4098 5.4086L11.9083 7.00655C10.6096 6.21221 9.5312 5.07319 8.77544 3.70915Z" fill="#3F72AF"/>
<path d="M7.84476 4.69962L2.27351 10.6288C2.00158 10.9182 1.86561 11.0629 1.77623 11.2406C1.68684 11.4183 1.64913 11.619 1.57373 12.0202L1.04085 14.8558C0.998287 15.0823 0.977008 15.1955 1.03756 15.2599C1.09811 15.3243 1.20455 15.3016 1.41741 15.2563L4.08106 14.6894C4.45837 14.6091 4.64705 14.5689 4.81417 14.4737C4.98129 14.3786 5.11731 14.2338 5.38936 13.9443L10.9754 7.99938C9.70917 7.16138 8.63994 6.0314 7.84476 4.69962Z" fill="#3F72AF"/>
<path d="M10.293 2.09411L10.6574 2.4365L10.6574 2.4365L10.293 2.09411ZM8.77544 3.70915L8.41106 3.36676L8.16136 3.63251L8.33809 3.95147L8.77544 3.70915ZM11.5736 1.03247L11.4585 0.545894L11.4585 0.545894L11.5736 1.03247ZM12.1292 1.03247L12.2443 0.545894L12.2443 0.545894L12.1292 1.03247ZM13.4098 2.09411L13.7742 1.75173L13.7742 1.75173L13.4098 2.09411ZM14.4067 3.45593L14.8961 3.35368L14.8961 3.35368L14.4067 3.45593ZM14.4067 4.04678L14.8961 4.14903L14.8961 4.14903L14.4067 4.04678ZM13.4098 5.4086L13.0454 5.06621L13.0454 5.06621L13.4098 5.4086ZM11.9083 7.00655L11.6474 7.43309L11.9943 7.64524L12.2727 7.34893L11.9083 7.00655ZM7.84476 4.69962L8.27406 4.44329L7.93426 3.87419L7.48038 4.35723L7.84476 4.69962ZM2.27351 10.6288L1.90913 10.2864L1.90913 10.2864L2.27351 10.6288ZM1.77623 11.2406L2.22292 11.4653L2.22292 11.4653L1.77623 11.2406ZM1.57373 12.0202L2.06512 12.1126L2.06512 12.1126L1.57373 12.0202ZM1.04085 14.8558L1.53224 14.9481L1.53224 14.9481L1.04085 14.8558ZM1.03756 15.2599L1.40186 14.9174L1.40185 14.9174L1.03756 15.2599ZM1.41741 15.2563L1.52149 15.7454L1.5215 15.7454L1.41741 15.2563ZM4.08106 14.6894L3.97697 14.2003L3.97697 14.2003L4.08106 14.6894ZM4.81417 14.4737L4.56672 14.0393L4.56672 14.0393L4.81417 14.4737ZM5.38936 13.9443L5.02498 13.6019L5.02498 13.6019L5.38936 13.9443ZM10.9754 7.99938L11.3398 8.34177L11.7458 7.90966L11.2514 7.58242L10.9754 7.99938ZM10.293 2.09411L9.92861 1.75173L8.41106 3.36676L8.77544 3.70915L9.13982 4.05153L10.6574 2.4365L10.293 2.09411ZM11.5736 1.03247L11.4585 0.545894C11.1631 0.615759 10.923 0.777522 10.6969 0.975268C10.4758 1.16858 10.2272 1.43392 9.92861 1.75173L10.293 2.09411L10.6574 2.4365C10.9699 2.10392 11.1797 1.88148 11.3551 1.72809C11.5255 1.57912 11.6201 1.53525 11.6887 1.51904L11.5736 1.03247ZM12.1292 1.03247L12.2443 0.545894C11.9857 0.484702 11.7171 0.484702 11.4585 0.545894L11.5736 1.03247L11.6887 1.51904C11.796 1.49365 11.9068 1.49365 12.0141 1.51904L12.1292 1.03247ZM13.4098 2.09411L13.7742 1.75173C13.4756 1.43392 13.227 1.16858 13.0059 0.975268C12.7798 0.777522 12.5397 0.615759 12.2443 0.545894L12.1292 1.03247L12.0141 1.51904C12.0827 1.53525 12.1773 1.57912 12.3477 1.72809C12.5231 1.88148 12.7329 2.10392 13.0454 2.4365L13.4098 2.09411ZM14.4067 3.45593L14.8961 3.35368C14.8341 3.05705 14.6891 2.80954 14.5027 2.5681C14.3217 2.33358 14.0728 2.06954 13.7742 1.75173L13.4098 2.09411L13.0454 2.4365C13.3575 2.76861 13.5667 2.99202 13.7112 3.17919C13.8503 3.35944 13.8984 3.46788 13.9172 3.55818L14.4067 3.45593ZM14.4067 4.04678L14.8961 4.14903C14.9509 3.88702 14.9509 3.61569 14.8961 3.35368L14.4067 3.45593L13.9172 3.55817C13.9438 3.68532 13.9438 3.81739 13.9172 3.94454L14.4067 4.04678ZM13.4098 5.4086L13.7742 5.75098C14.0728 5.43317 14.3217 5.16913 14.5027 4.93461C14.6891 4.69317 14.8341 4.44566 14.8961 4.14903L14.4067 4.04678L13.9172 3.94453C13.8984 4.03483 13.8503 4.14327 13.7112 4.32352C13.5667 4.51069 13.3575 4.7341 13.0454 5.06621L13.4098 5.4086ZM11.9083 7.00655L12.2727 7.34893L13.7742 5.75098L13.4098 5.4086L13.0454 5.06621L11.5439 6.66416L11.9083 7.00655ZM8.77544 3.70915L8.33809 3.95147C9.13422 5.38838 10.2723 6.59201 11.6474 7.43309L11.9083 7.00655L12.1692 6.58001C10.9469 5.8324 9.92819 4.758 9.2128 3.46683L8.77544 3.70915ZM7.84476 4.69962L7.48038 4.35723L1.90913 10.2864L2.27351 10.6288L2.63789 10.9711L8.20914 5.042L7.84476 4.69962ZM2.27351 10.6288L1.90913 10.2864C1.65618 10.5556 1.45894 10.7586 1.32953 11.016L1.77623 11.2406L2.22292 11.4653C2.27229 11.3671 2.34698 11.2807 2.63789 10.9711L2.27351 10.6288ZM1.77623 11.2406L1.32953 11.016C1.20112 11.2713 1.15252 11.5544 1.08233 11.9279L1.57373 12.0202L2.06512 12.1126C2.14574 11.6836 2.17255 11.5654 2.22292 11.4653L1.77623 11.2406ZM1.57373 12.0202L1.08233 11.9279L0.549447 14.7634L1.04085 14.8558L1.53224 14.9481L2.06512 12.1126L1.57373 12.0202ZM1.04085 14.8558L0.549447 14.7634C0.531025 14.8615 0.506212 14.9872 0.501099 15.0949C0.49571 15.2084 0.504119 15.4224 0.673274 15.6024L1.03756 15.2599L1.40185 14.9174C1.42497 14.942 1.44482 14.9698 1.46059 14.9996C1.47615 15.029 1.48564 15.0565 1.49136 15.0791C1.50198 15.1212 1.49971 15.1478 1.49997 15.1423C1.50019 15.1378 1.50153 15.1218 1.50744 15.0853C1.51325 15.0494 1.52125 15.0066 1.53224 14.9481L1.04085 14.8558ZM1.03756 15.2599L0.673267 15.6024C0.850599 15.791 1.07343 15.8052 1.19727 15.7985C1.30658 15.7926 1.43226 15.7644 1.52149 15.7454L1.41741 15.2563L1.31332 14.7673C1.25801 14.7791 1.21904 14.7873 1.18663 14.7933C1.15345 14.7993 1.14249 14.8 1.14346 14.8C1.14373 14.8 1.17877 14.7975 1.22972 14.8121C1.25684 14.8198 1.28762 14.8321 1.31922 14.851C1.35105 14.87 1.37874 14.8928 1.40186 14.9174L1.03756 15.2599ZM1.41741 15.2563L1.5215 15.7454L4.18515 15.1784L4.08106 14.6894L3.97697 14.2003L1.31331 14.7673L1.41741 15.2563ZM4.08106 14.6894L4.18515 15.1784C4.53312 15.1044 4.81168 15.0506 5.06161 14.9082L4.81417 14.4737L4.56672 14.0393C4.48242 14.0873 4.38363 14.1138 3.97697 14.2003L4.08106 14.6894ZM4.81417 14.4737L5.06161 14.9082C5.30936 14.7671 5.50261 14.5539 5.75374 14.2867L5.38936 13.9443L5.02498 13.6019C4.73202 13.9137 4.65322 13.99 4.56672 14.0393L4.81417 14.4737ZM5.38936 13.9443L5.75374 14.2867L11.3398 8.34177L10.9754 7.99938L10.611 7.657L5.02498 13.6019L5.38936 13.9443ZM10.9754 7.99938L11.2514 7.58242C10.0496 6.78709 9.03203 5.71275 8.27406 4.44329L7.84476 4.69962L7.41546 4.95594C8.24785 6.35005 9.36876 7.53567 10.6995 8.41634L10.9754 7.99938ZM1 17V17.5H17V17V16.5H1V17Z" fill="#3F72AF"/>
</svg>
