<svg width="16" height="16" viewBox="0 0 16 16" fill="none" xmlns="http://www.w3.org/2000/svg">
<path d="M7.99425 0C3.56889 0 0 3.08878 0 6.83861C0 9.27263 1.48466 11.4039 3.71164 12.6209L2.95789 15.6665C2.94368 15.7121 2.9415 15.7612 2.95159 15.808C2.96167 15.8549 2.98362 15.898 3.015 15.9321C3.06074 15.9757 3.1196 15.9998 3.1806 16C3.23116 15.9957 3.27914 15.974 3.31763 15.9383L6.56104 13.5723C7.03981 13.6437 7.52242 13.6808 8.00577 13.6834C12.4255 13.6834 16 10.5947 16 6.83861C16 3.08261 12.414 0 7.99425 0Z" fill="#392020"/>
<path d="M2.7976 5.75749H1.92392C1.81565 5.76089 1.7087 5.73088 1.61557 5.67099C1.57424 5.64297 1.53869 5.60599 1.51118 5.56239C1.48366 5.51881 1.46477 5.46954 1.45569 5.41768C1.45292 5.38481 1.45292 5.35177 1.45569 5.3189C1.45298 5.25738 1.46401 5.19602 1.48787 5.1401C1.51174 5.08418 1.5477 5.03532 1.59273 4.99765C1.69228 4.91965 1.81245 4.87844 1.93534 4.88024H4.56776C4.6769 4.87608 4.78458 4.90846 4.87611 4.97291C4.91842 4.9997 4.95472 5.03634 4.98238 5.08015C5.01001 5.12394 5.02833 5.17383 5.036 5.22622C5.03879 5.25702 5.03879 5.28808 5.036 5.3189C5.03869 5.3813 5.02768 5.4435 5.00385 5.50041C4.98003 5.55733 4.94408 5.60728 4.89895 5.64626C4.80183 5.72416 4.68283 5.76347 4.56204 5.75749H3.71694V9.00701C3.72037 9.0761 3.71047 9.14535 3.68785 9.21029C3.66525 9.27507 3.63043 9.33416 3.5856 9.38371C3.54261 9.43111 3.49095 9.4682 3.4339 9.49266C3.37686 9.51713 3.31572 9.52852 3.2544 9.5259C3.14717 9.52913 3.04219 9.49205 2.95747 9.4208C2.87681 9.35124 2.82208 9.2526 2.8033 9.14288C2.79765 9.0978 2.79765 9.05209 2.8033 9.00701L2.7976 5.75749Z" fill="#FEE500"/>
<path d="M5.28806 5.12114C5.31318 5.01948 5.37215 4.93144 5.45366 4.87401C5.5405 4.82077 5.63945 4.79507 5.73916 4.79989H5.95615C6.06196 4.79578 6.16675 4.82359 6.2588 4.8802C6.35633 4.95116 6.42565 5.05921 6.45294 5.18289L7.59498 8.67325C7.6246 8.76435 7.64937 8.85715 7.66922 8.95132C7.67117 8.99041 7.67117 9.0295 7.66922 9.06858C7.67115 9.12891 7.66091 9.18877 7.6392 9.24432C7.61751 9.29972 7.58488 9.34942 7.54359 9.38989C7.50359 9.43421 7.45556 9.4693 7.4025 9.49269C7.34946 9.51592 7.29251 9.52731 7.23524 9.52577C7.14717 9.53532 7.05872 9.51239 6.98413 9.46083C6.90955 9.40928 6.85318 9.33203 6.82411 9.2417L6.58427 8.48182H5.08249L4.84266 9.2417C4.8143 9.33388 4.75724 9.41267 4.68123 9.46437C4.60523 9.51623 4.51496 9.53793 4.42582 9.52577C4.32926 9.52854 4.23468 9.49592 4.15744 9.43313C4.08218 9.36835 4.0314 9.27617 4.01467 9.17369C4.01164 9.13875 4.01164 9.10352 4.01467 9.06858C4.00487 9.00734 4.00487 8.94471 4.01467 8.88331C4.01467 8.81544 4.05466 8.74127 4.07749 8.67325L5.28806 5.12114ZM5.85909 5.93045L5.31661 7.78374H6.39583L5.85909 5.93045Z" fill="#FEE500"/>
<path d="M7.8003 5.31906C7.7945 5.18041 7.83966 5.04495 7.92592 4.94223C7.9698 4.89437 8.02243 4.85698 8.08046 4.83251C8.1385 4.80803 8.20065 4.79696 8.26281 4.80007C8.36978 4.79873 8.47418 4.83568 8.55981 4.90513C8.63904 4.97759 8.69181 5.07839 8.70817 5.18928C8.71386 5.2323 8.71386 5.27602 8.70817 5.31906V8.56852H10.2785C10.3873 8.56698 10.4944 8.59899 10.5869 8.66116C10.6284 8.68886 10.6641 8.72579 10.6917 8.76934C10.7193 8.81304 10.7381 8.86244 10.7468 8.91445C10.7468 8.91445 10.7468 8.97616 10.7468 9.00709C10.7495 9.06864 10.7384 9.12989 10.7146 9.18575C10.6907 9.24176 10.6547 9.2907 10.6098 9.3284C10.5102 9.40627 10.39 9.44751 10.2671 9.44566H8.33706C8.21417 9.45428 8.09198 9.41965 7.98872 9.34687C7.89642 9.27223 7.8349 9.16128 7.81743 9.03802C7.81325 8.97016 7.81325 8.90199 7.81743 8.83412L7.8003 5.31906Z" fill="#FEE500"/>
<path d="M10.8495 5.3191C10.8461 5.18087 10.8909 5.04632 10.9751 4.94227C11.0607 4.85814 11.1705 4.80845 11.286 4.80169C11.4014 4.79495 11.5154 4.8315 11.6089 4.90517C11.69 4.977 11.7447 5.07775 11.7631 5.18931C11.7659 5.23251 11.7659 5.2759 11.7631 5.3191V6.83259L13.2078 5.02869C13.2634 4.96715 13.3226 4.90944 13.3848 4.85577C13.4435 4.81799 13.5108 4.79868 13.5789 4.80012C13.6788 4.79952 13.7764 4.83187 13.8587 4.89279C13.8976 4.92108 13.9307 4.95758 13.9563 5.00004C13.9818 5.04249 13.9991 5.09006 14.0072 5.13992C14.0095 5.15215 14.0095 5.16478 14.0072 5.17702C14.0045 5.19128 14.0045 5.20598 14.0072 5.22023C14.0071 5.28523 13.9913 5.34911 13.9616 5.40558C13.9313 5.4654 13.8949 5.52127 13.853 5.57232L12.9051 6.69669L14.0472 8.61167V8.67354C14.1065 8.76202 14.1527 8.86004 14.1843 8.96391V8.99469C14.1909 9.0664 14.1813 9.13857 14.1564 9.20536C14.1315 9.27199 14.0921 9.33124 14.0415 9.37771C13.9462 9.45573 13.8297 9.49697 13.7104 9.49513C13.631 9.49866 13.5522 9.47943 13.4819 9.43957C13.4058 9.38433 13.3432 9.31016 13.2992 9.22336L12.237 7.37004L11.7288 7.94459V8.97623C11.7322 9.11441 11.6874 9.24891 11.6032 9.35309C11.5581 9.40079 11.5045 9.43803 11.4455 9.4625C11.3866 9.48681 11.3237 9.49805 11.2607 9.49513C11.1553 9.49759 11.0525 9.4605 10.9694 9.39018C10.8887 9.32062 10.834 9.22183 10.8152 9.11211C10.8096 9.06702 10.8096 9.02131 10.8152 8.97623L10.8495 5.3191Z" fill="#FEE500"/>
</svg>
