<svg width="68" height="51" viewBox="0 0 68 51" fill="none" xmlns="http://www.w3.org/2000/svg">
<path fill-rule="evenodd" clip-rule="evenodd" d="M0 0V51H68V0H0Z" fill="#F7FCFF"/>
<mask id="mask0_679_103" style="mask-type:luminance" maskUnits="userSpaceOnUse" x="0" y="0" width="68" height="51">
<path fill-rule="evenodd" clip-rule="evenodd" d="M0 0V51H68V0H0Z" fill="white"/>
</mask>
<g mask="url(#mask0_679_103)">
<path fill-rule="evenodd" clip-rule="evenodd" d="M33.9996 38.7172C40.8054 38.7172 46.3226 32.858 46.3226 25.6303C46.3226 18.4027 40.8054 12.5435 33.9996 12.5435C27.1938 12.5435 21.6766 18.4027 21.6766 25.6303C21.6766 32.858 27.1938 38.7172 33.9996 38.7172Z" fill="#3D58DB"/>
<mask id="mask1_679_103" style="mask-type:luminance" maskUnits="userSpaceOnUse" x="21" y="12" width="26" height="27">
<path fill-rule="evenodd" clip-rule="evenodd" d="M33.9996 38.7172C40.8054 38.7172 46.3226 32.858 46.3226 25.6303C46.3226 18.4027 40.8054 12.5435 33.9996 12.5435C27.1938 12.5435 21.6766 18.4027 21.6766 25.6303C21.6766 32.858 27.1938 38.7172 33.9996 38.7172Z" fill="white"/>
</mask>
<g mask="url(#mask1_679_103)">
<path fill-rule="evenodd" clip-rule="evenodd" d="M46.7541 26.6327C46.7541 26.6327 46.0624 20.4618 40.9397 20.1268C35.8171 19.7918 34.4358 24.6522 34.1402 25.9398C33.8446 27.2275 33.0964 30.6626 27.7028 30.6626C22.3093 30.6626 21.8228 21.9279 21.8228 21.9279V11.6284H46.7541V26.6327Z" fill="#E31D1C"/>
</g>
<path fill-rule="evenodd" clip-rule="evenodd" d="M15.5109 4.36133L17.4552 6.11982L8.44466 16.6426L6.50037 14.8841L15.5109 4.36133ZM18.7174 7.20674L20.6617 8.96523L11.9741 19.3356L10.0298 17.5771L18.7174 7.20674ZM23.8534 11.8456L21.9091 10.0871L13.1974 20.5362L15.1417 22.2947L23.8534 11.8456Z" fill="#272727"/>
<path fill-rule="evenodd" clip-rule="evenodd" d="M53.8979 3.62402L51.9532 5.37593L55.3265 9.33446L57.2712 7.58255L53.8979 3.62402ZM59.8936 10.9055L57.9489 12.6574L61.3221 16.6159L63.2668 14.864L59.8936 10.9055ZM45.5343 11.0777L47.479 9.32583L50.8522 13.2844L48.9075 15.0363L45.5343 11.0777ZM53.4746 16.6073L51.5299 18.3592L54.9032 22.3177L56.8479 20.5658L53.4746 16.6073ZM48.8655 8.14175L50.8102 6.38984L60.1997 17.8242L58.255 19.5761L48.8655 8.14175Z" fill="#272727"/>
<path fill-rule="evenodd" clip-rule="evenodd" d="M55.3666 30.267L53.4056 28.5083L50.0039 32.4823L51.965 34.241L55.3666 30.267ZM49.6474 37.2605L47.6863 35.5017L44.2847 39.4757L46.2457 41.2344L49.6474 37.2605ZM59.5988 34.0698L61.5599 35.8286L58.1582 39.8025L56.1971 38.0438L59.5988 34.0698ZM56.1204 42.9847L54.1593 41.2259L50.7576 45.1999L52.7187 46.9586L56.1204 42.9847ZM50.9283 38.2036L52.8894 39.9624L49.3386 44.2059L47.3775 42.4471L50.9283 38.2036ZM58.7149 32.8918L56.7538 31.133L53.203 35.3765L55.1641 37.1353L58.7149 32.8918Z" fill="#272727"/>
<path fill-rule="evenodd" clip-rule="evenodd" d="M13.6137 31.6415L15.5585 29.8877L24.2383 39.8336L22.2935 41.5874L13.6137 31.6415ZM15.6381 40.3409L17.5829 38.587L21.2492 42.615L19.3044 44.3689L15.6381 40.3409ZM9.15755 35.4684L7.21273 37.2223L15.9376 47.3019L17.8824 45.5481L9.15755 35.4684ZM10.5413 34.3244L12.4861 32.5706L15.6644 36.2976L13.7196 38.0514L10.5413 34.3244Z" fill="#272727"/>
</g>
</svg>
