<svg width="64" height="48" viewBox="0 0 64 48" fill="none" xmlns="http://www.w3.org/2000/svg">
<path fill-rule="evenodd" clip-rule="evenodd" d="M0 0V48H64V0H0Z" fill="#F7FCFF"/>
<mask id="mask0_158_1469" style="mask-type:luminance" maskUnits="userSpaceOnUse" x="0" y="0" width="64" height="48">
<path fill-rule="evenodd" clip-rule="evenodd" d="M0 0V48H64V0H0Z" fill="white"/>
</mask>
<g mask="url(#mask0_158_1469)">
<path fill-rule="evenodd" clip-rule="evenodd" d="M31.9999 36.4398C38.4054 36.4398 43.598 30.9253 43.598 24.1227C43.598 17.3202 38.4054 11.8057 31.9999 11.8057C25.5945 11.8057 20.4019 17.3202 20.4019 24.1227C20.4019 30.9253 25.5945 36.4398 31.9999 36.4398Z" fill="#3D58DB"/>
<mask id="mask1_158_1469" style="mask-type:luminance" maskUnits="userSpaceOnUse" x="20" y="11" width="24" height="26">
<path fill-rule="evenodd" clip-rule="evenodd" d="M31.9999 36.4398C38.4054 36.4398 43.598 30.9253 43.598 24.1227C43.598 17.3202 38.4054 11.8057 31.9999 11.8057C25.5945 11.8057 20.4019 17.3202 20.4019 24.1227C20.4019 30.9253 25.5945 36.4398 31.9999 36.4398Z" fill="white"/>
</mask>
<g mask="url(#mask1_158_1469)">
<path fill-rule="evenodd" clip-rule="evenodd" d="M44.0043 25.0661C44.0043 25.0661 43.3533 19.2582 38.532 18.9429C33.7107 18.6276 32.4107 23.2021 32.1324 24.414C31.8542 25.626 31.15 28.859 26.0737 28.859C20.9975 28.859 20.5396 20.6381 20.5396 20.6381V10.9445H44.0043V25.0661Z" fill="#E31D1C"/>
</g>
<path d="M22.4502 11.1487L14.251 20.9836L12.4209 19.3284L20.6201 9.49341L22.4502 11.1487ZM19.4463 8.43774L11.2695 18.1985L9.44043 16.5432L17.6162 6.78247L19.4463 8.43774ZM16.4287 5.76001L7.94824 15.6633L6.11816 14.009L14.5986 4.10474L16.4287 5.76001Z" fill="#272727"/>
<path d="M48.4985 17.2793L51.6733 21.0049L53.5044 19.3564L50.3296 15.6309L48.4985 17.2793ZM45.9907 7.66309L54.8286 18.4248L56.6587 16.7764L47.8218 6.01465L45.9907 7.66309ZM54.5405 11.9131L57.7153 15.6387L59.5454 13.9902L56.3706 10.2646L54.5405 11.9131ZM42.856 10.4268L46.0308 14.1523L47.8608 12.5029L44.686 8.77734L42.856 10.4268ZM48.897 5.05957L52.0718 8.78613L53.9028 7.13672L50.728 3.41113L48.897 5.05957Z" fill="#272727"/>
<path d="M52.8193 40.4562L49.6172 44.1964L47.7715 42.5411L50.9736 38.8009L52.8193 40.4562ZM49.7783 37.6115L46.4365 41.6056L44.5908 39.9503L47.9326 35.9562L49.7783 37.6115ZM46.7266 35.0685L43.5254 38.8087L41.6797 37.1534L44.8809 33.4132L46.7266 35.0685ZM57.9385 33.7208L54.7373 37.4611L52.8916 35.8058L56.0928 32.0656L57.9385 33.7208ZM55.2607 30.9572L51.9189 34.9503L50.0732 33.295L53.415 29.3019L55.2607 30.9572ZM52.1094 28.4865L48.9082 32.2267L47.0625 30.5714L50.2637 26.8312L52.1094 28.4865Z" fill="#272727"/>
<path d="M6.78809 35.0332L15 44.5195L16.8301 42.8691L8.61914 33.3818L6.78809 35.0332ZM14.7178 37.9678L18.1689 41.7588L19.999 40.1084L16.5488 36.3174L14.7178 37.9678ZM12.8125 29.7803L20.9824 39.1416L22.8125 37.4902L14.6436 28.1299L12.8125 29.7803ZM9.9209 32.3057L12.9121 35.8135L14.7432 34.1631L11.752 30.6553L9.9209 32.3057Z" fill="#272727"/>
</g>
</svg>
