<svg width="40" height="30" viewBox="0 0 40 30" fill="none" xmlns="http://www.w3.org/2000/svg">
<path fill-rule="evenodd" clip-rule="evenodd" d="M0 0H40V30H0V0Z" fill="#E31D1C"/>
<path fill-rule="evenodd" clip-rule="evenodd" d="M0 2.5V5H40V2.5H0ZM0 7.5V10H40V7.5H0ZM0 15V12.5H40V15H0ZM0 17.5V20H40V17.5H0ZM0 25V22.5H40V25H0ZM0 30V27.5H40V30H0Z" fill="#F7FCFF"/>
<rect width="22.5" height="17.5" fill="#2E42A5"/>
<path fill-rule="evenodd" clip-rule="evenodd" d="M2.60001 5.43437L3.92481 4.51154L4.95246 5.25137H4.37061L5.54728 6.29212L5.14985 7.75137H4.52738L3.92296 6.41113L3.4075 7.75137H1.87061L3.04728 8.79212L2.60001 10.4344L3.92481 9.51154L4.95246 10.2514H4.37061L5.54728 11.2921L5.14985 12.7514H4.52738L3.92296 11.4111L3.4075 12.7514H1.87061L3.04728 13.7921L2.60001 15.4344L3.92481 14.5115L5.20665 15.4344L4.80811 13.7921L5.83754 12.7514H5.36272L6.42481 12.0115L7.45246 12.7514H6.87061L8.04728 13.7921L7.60001 15.4344L8.92481 14.5115L10.2066 15.4344L9.80811 13.7921L10.8375 12.7514H10.3627L11.4248 12.0115L12.4525 12.7514H11.8706L13.0473 13.7921L12.6 15.4344L13.9248 14.5115L15.2066 15.4344L14.8081 13.7921L15.8375 12.7514H15.3627L16.4248 12.0115L17.4525 12.7514H16.8706L18.0473 13.7921L17.6 15.4344L18.9248 14.5115L20.2066 15.4344L19.8081 13.7921L20.8375 12.7514H19.5274L18.923 11.4111L18.4075 12.7514H17.6622L17.3081 11.2921L18.3375 10.2514H17.8627L18.9248 9.51154L20.2066 10.4344L19.8081 8.79212L20.8375 7.75137H19.5274L18.923 6.41113L18.4075 7.75137H17.6622L17.3081 6.29212L18.3375 5.25137H17.8627L18.9248 4.51154L20.2066 5.43437L19.8081 3.79212L20.8375 2.75137H19.5274L18.923 1.41113L18.4075 2.75137H16.8706L18.0473 3.79212L17.6498 5.25137H17.0274L16.423 3.91113L15.9075 5.25137H15.1622L14.8081 3.79212L15.8375 2.75137H14.5274L13.923 1.41113L13.4075 2.75137H11.8706L13.0473 3.79212L12.6498 5.25137H12.0274L11.423 3.91113L10.9075 5.25137H10.1622L9.80811 3.79212L10.8375 2.75137H9.52738L8.92296 1.41113L8.4075 2.75137H6.87061L8.04728 3.79212L7.64985 5.25137H7.02738L6.42296 3.91113L5.9075 5.25137H5.16224L4.80811 3.79212L5.83754 2.75137H4.52738L3.92296 1.41113L3.4075 2.75137H1.87061L3.04728 3.79212L2.60001 5.43437ZM17.6498 10.2514L18.0473 8.79212L16.8706 7.75137H17.4525L16.4248 7.01154L15.3627 7.75137H15.8375L14.8081 8.79212L15.1622 10.2514H15.9075L16.423 8.91113L17.0274 10.2514H17.6498ZM14.9525 10.2514L13.9248 9.51154L12.8627 10.2514H13.3375L12.3081 11.2921L12.6622 12.7514H13.4075L13.923 11.4111L14.5274 12.7514H15.1498L15.5473 11.2921L14.3706 10.2514H14.9525ZM10.5473 11.2921L10.1498 12.7514H9.52738L8.92296 11.4111L8.4075 12.7514H7.66224L7.30811 11.2921L8.33754 10.2514H7.86272L8.92481 9.51154L9.95246 10.2514H9.37061L10.5473 11.2921ZM10.9075 10.2514H10.1622L9.80811 8.79212L10.8375 7.75137H10.3627L11.4248 7.01154L12.4525 7.75137H11.8706L13.0473 8.79212L12.6498 10.2514H12.0274L11.423 8.91113L10.9075 10.2514ZM7.64985 10.2514L8.04728 8.79212L6.87061 7.75137H7.45246L6.42481 7.01154L5.36272 7.75137H5.83754L4.80811 8.79212L5.16224 10.2514H5.9075L6.42296 8.91113L7.02738 10.2514H7.64985ZM15.5473 6.29212L15.1498 7.75137H14.5274L13.923 6.41113L13.4075 7.75137H12.6622L12.3081 6.29212L13.3375 5.25137H12.8627L13.9248 4.51154L14.9525 5.25137H14.3706L15.5473 6.29212ZM9.95246 5.25137L8.92481 4.51154L7.86272 5.25137H8.33754L7.30811 6.29212L7.66224 7.75137H8.4075L8.92296 6.41113L9.52738 7.75137H10.1498L10.5473 6.29212L9.37061 5.25137H9.95246Z" fill="#F7FCFF"/>
</svg>
