<svg width="40" height="30" viewBox="0 0 40 30" fill="none" xmlns="http://www.w3.org/2000/svg">
<path fill-rule="evenodd" clip-rule="evenodd" d="M0 0H40V30H0V0Z" fill="#E31D1C"/>
<path fill-rule="evenodd" clip-rule="evenodd" d="M8.89241 12.1941L4.02578 16.0084L5.88411 10.2402L2.63867 7.24076L7.03318 7.07858L8.89241 2.43555L10.7516 7.07858H15.1387L11.9007 10.2402L13.3758 16.0084L8.89241 12.1941Z" fill="#FECA00"/>
<path fill-rule="evenodd" clip-rule="evenodd" d="M18.7706 7.71486L16.7285 8.9477L17.1943 6.54194L15.4937 4.74145L17.7964 4.6441L18.7706 2.39771L19.7448 4.6441H22.0437L20.347 6.54194L20.8578 8.9477L18.7706 7.71486Z" fill="#FECA00"/>
<path fill-rule="evenodd" clip-rule="evenodd" d="M21.2706 12.7149L19.2285 13.9477L19.6943 11.5419L17.9937 9.74145L20.2964 9.6441L21.2706 7.39771L22.2448 9.6441H24.5437L22.847 11.5419L23.3578 13.9477L21.2706 12.7149Z" fill="#FECA00"/>
<path fill-rule="evenodd" clip-rule="evenodd" d="M18.7706 17.7149L16.7285 18.9477L17.1943 16.5419L15.4937 14.7415L17.7964 14.6441L18.7706 12.3977L19.7448 14.6441H22.0437L20.347 16.5419L20.8578 18.9477L18.7706 17.7149Z" fill="#FECA00"/>
<path fill-rule="evenodd" clip-rule="evenodd" d="M13.7706 20.2149L11.7285 21.4477L12.1943 19.0419L10.4937 17.2415L12.7964 17.1441L13.7706 14.8977L14.7448 17.1441H17.0437L15.347 19.0419L15.8578 21.4477L13.7706 20.2149Z" fill="#FECA00"/>
</svg>
