<svg width="21" height="23" viewBox="0 0 21 23" fill="none" xmlns="http://www.w3.org/2000/svg">
<path d="M19.1132 10.2998C19.1132 16.4131 12.3251 20.5063 10.5393 21.4773C10.2705 21.6235 9.95582 21.6235 9.68698 21.4773C7.90124 20.5063 1.11316 16.4131 1.11316 10.2998C1.11316 4.8998 5.47397 1.2998 10.1132 1.2998C14.9132 1.2998 19.1132 4.8998 19.1132 10.2998Z" stroke="#F9F7F7" stroke-width="2"/>
<path d="M5.6564 11.243L9.85603 15.4427C9.97724 15.5639 10.0378 15.6245 10.1132 15.6245C10.1885 15.6245 10.2491 15.5639 10.3703 15.4427L14.5699 11.243C15.4672 10.3457 15.6065 8.93976 14.9025 7.88388C13.8048 6.23723 11.3579 6.3215 10.376 8.03978L10.2067 8.3361C10.1653 8.40848 10.061 8.40848 10.0196 8.3361L9.85029 8.03978C8.86841 6.3215 6.42154 6.23723 5.32378 7.88388C4.61986 8.93976 4.75907 10.3457 5.6564 11.243Z" stroke="#F9F7F7" stroke-width="2"/>
</svg>
