<svg width="18" height="18" viewBox="0 0 18 18" fill="none" xmlns="http://www.w3.org/2000/svg">
<path d="M17 8.05882C17 12.8474 10.9817 16.0556 9.38498 16.8225C9.13883 16.9407 8.86117 16.9407 8.61502 16.8225C7.01832 16.0556 1 12.8474 1 8.05882C1 3.82353 4.87627 1 9 1C13.2667 1 17 3.82353 17 8.05882Z" stroke="#3F72AF" stroke-width="2"/>
<path d="M5.23448 8.97053L8.78008 12.099C8.87581 12.1835 8.92367 12.2257 8.98019 12.2323C8.99422 12.234 9.00839 12.234 9.02242 12.2323C9.07893 12.2257 9.1268 12.1835 9.22252 12.099L12.7681 8.97054C13.6519 8.19076 13.7857 6.86182 13.0752 5.92147C12.1321 4.67318 10.2352 4.74183 9.38477 6.05503L9.08443 6.51879C9.0454 6.57906 8.95721 6.57906 8.91818 6.51879L8.61784 6.05503C7.76738 4.74183 5.87052 4.67318 4.92737 5.92147C4.21688 6.86182 4.35073 8.19076 5.23448 8.97053Z" stroke="#3F72AF" stroke-width="2"/>
</svg>
