<svg width="18" height="17" viewBox="0 0 18 17" fill="none" xmlns="http://www.w3.org/2000/svg">
<path d="M9.00098 1C10.8362 1 12.2675 2.4315 12.2676 4.12891C12.2676 5.82637 10.8363 7.25781 9.00098 7.25781C7.16572 7.25778 5.73438 5.82635 5.73438 4.12891C5.73445 2.43152 7.16576 1.00003 9.00098 1Z" stroke="#3F72AF" stroke-width="2" stroke-linecap="round"/>
<path d="M1.43682 13.1463C2.13384 10.8651 4.51432 9.8064 6.8996 9.8064H11.1004C13.4857 9.8064 15.8662 10.8651 16.5632 13.1463C16.7359 13.7116 16.8743 14.3339 16.9461 15.0017C17.0052 15.5508 16.5523 15.9999 16 15.9999H2C1.44772 15.9999 0.994799 15.5508 1.05387 15.0017C1.1257 14.3339 1.26409 13.7116 1.43682 13.1463Z" stroke="#3F72AF" stroke-width="2" stroke-linecap="round"/>
</svg>
