<svg width="24" height="25" viewBox="0 0 24 25" fill="none" xmlns="http://www.w3.org/2000/svg">
<path d="M14.3587 2.57279L14.7231 2.91517V2.91517L14.3587 2.57279ZM12.1772 4.8944L11.8128 4.55202L11.5631 4.81776L11.7398 5.13672L12.1772 4.8944ZM16.1995 1.04667L16.0844 0.560097V0.560097L16.1995 1.04667ZM16.9983 1.04667L17.1134 0.560097L16.9983 1.04667ZM18.8391 2.57279L19.2035 2.2304V2.2304L18.8391 2.57279ZM20.2721 4.53039L20.7615 4.42815V4.42814L20.2721 4.53039ZM20.2721 5.37975L20.7615 5.482V5.482L20.2721 5.37975ZM18.8391 7.33736L18.4747 6.99497L18.8391 7.33736ZM16.6807 9.63441L16.4198 10.061L16.7667 10.2731L17.0451 9.9768L16.6807 9.63441ZM10.8393 6.3182L11.2686 6.06187L10.9288 5.49277L10.475 5.97581L10.8393 6.3182ZM2.83067 14.8413L2.46629 14.499L2.83067 14.8413ZM2.11582 15.7209L2.56252 15.9455H2.56252L2.11582 15.7209ZM1.82473 16.8416L2.31613 16.9339L1.82473 16.8416ZM1.05872 20.9177L1.55011 21.01L1.05872 20.9177ZM1.05399 21.4986L1.41829 21.1561L1.41828 21.1561L1.05399 21.4986ZM1.60002 21.4935L1.70411 21.9825L1.70411 21.9825L1.60002 21.4935ZM5.42902 20.6785L5.32493 20.1895H5.32493L5.42902 20.6785ZM6.48287 20.3685L6.23542 19.934H6.23542L6.48287 20.3685ZM7.3097 19.6074L6.94532 19.265L7.3097 19.6074ZM15.3396 11.0616L15.704 11.404L16.11 10.9719L15.6156 10.6447L15.3396 11.0616ZM13.9943 2.2304L11.8128 4.55202L12.5416 5.23679L14.7231 2.91517L13.9943 2.2304ZM16.0844 0.560097C15.7094 0.648793 15.3961 0.855538 15.0832 1.12913C14.7754 1.39828 14.4266 1.77033 13.9943 2.2304L14.7231 2.91517C15.1692 2.44033 15.4793 2.11118 15.7415 1.88195C15.9986 1.65714 16.1664 1.56829 16.3146 1.53324L16.0844 0.560097ZM17.1134 0.560097C16.7746 0.479967 16.4231 0.479968 16.0844 0.560097L16.3146 1.53324C16.502 1.48892 16.6958 1.48892 16.8832 1.53324L17.1134 0.560097ZM19.2035 2.2304C18.7712 1.77033 18.4224 1.39828 18.1145 1.12913C17.8016 0.855539 17.4883 0.648793 17.1134 0.560097L16.8832 1.53324C17.0313 1.56829 17.1992 1.65714 17.4563 1.88195C17.7185 2.11118 18.0285 2.44033 18.4747 2.91517L19.2035 2.2304ZM20.7615 4.42814C20.6819 4.04687 20.4946 3.7215 20.237 3.38781C19.9847 3.06105 19.6357 2.69038 19.2035 2.2304L18.4747 2.91517C18.9204 3.38946 19.2297 3.71949 19.4454 3.99891C19.6558 4.27141 19.7461 4.45771 19.7827 4.63264L20.7615 4.42814ZM20.7615 5.482C20.8341 5.13485 20.8341 4.77529 20.7615 4.42815L19.7827 4.63264C19.827 4.84491 19.827 5.06523 19.7827 5.2775L20.7615 5.482ZM19.2035 7.67974C19.6357 7.21976 19.9847 6.84909 20.237 6.52233C20.4946 6.18864 20.6819 5.86327 20.7615 5.482L19.7827 5.2775C19.7461 5.45244 19.6558 5.63874 19.4454 5.91123C19.2297 6.19065 18.9204 6.52069 18.4747 6.99497L19.2035 7.67974ZM17.0451 9.9768L19.2035 7.67974L18.4747 6.99497L16.3163 9.29203L17.0451 9.9768ZM11.7398 5.13672C12.8666 7.17039 14.4765 8.87236 16.4198 10.061L16.9416 9.20787C15.1511 8.11275 13.6606 6.54002 12.6146 4.65208L11.7398 5.13672ZM10.475 5.97581L2.46629 14.499L3.19505 15.1837L11.2037 6.66058L10.475 5.97581ZM2.46629 14.499C2.09437 14.8948 1.83764 15.1611 1.66913 15.4962L2.56252 15.9455C2.651 15.7696 2.78517 15.6199 3.19505 15.1837L2.46629 14.499ZM1.66913 15.4962C1.50161 15.8293 1.43652 16.2002 1.33333 16.7492L2.31613 16.9339C2.42974 16.3294 2.47304 16.1234 2.56252 15.9455L1.66913 15.4962ZM1.33333 16.7492L0.567317 20.8254L1.55011 21.01L2.31613 16.9339L1.33333 16.7492ZM0.567317 20.8254C0.539586 20.9729 0.50779 21.1358 0.501334 21.2718C0.494601 21.4136 0.507306 21.6471 0.689707 21.8411L1.41828 21.1561C1.46139 21.202 1.48434 21.2531 1.49422 21.2922C1.50228 21.3242 1.49928 21.3388 1.50021 21.3192C1.5011 21.3005 1.50452 21.2682 1.51351 21.2126C1.5224 21.1577 1.53447 21.0933 1.55011 21.01L0.567317 20.8254ZM0.6897 21.8411C0.880278 22.0438 1.12137 22.0626 1.27181 22.0545C1.40771 22.0471 1.56831 22.0114 1.70411 21.9825L1.49593 21.0044C1.41735 21.0212 1.358 21.0338 1.30772 21.043C1.25666 21.0523 1.23032 21.0552 1.218 21.0559C1.20497 21.0566 1.22879 21.0534 1.2702 21.0652C1.29255 21.0716 1.31897 21.082 1.34658 21.0985C1.37442 21.1152 1.39849 21.1351 1.41829 21.1561L0.6897 21.8411ZM1.70411 21.9825L5.53311 21.1675L5.32493 20.1895L1.49593 21.0044L1.70411 21.9825ZM5.53311 21.1675C6.04615 21.0583 6.40726 20.987 6.73031 20.803L6.23542 19.934C6.078 20.0237 5.89667 20.0678 5.32493 20.1895L5.53311 21.1675ZM6.73031 20.803C7.05118 20.6202 7.30394 20.3437 7.67408 19.9498L6.94532 19.265C6.53334 19.7035 6.39504 19.8431 6.23542 19.934L6.73031 20.803ZM7.67408 19.9498L15.704 11.404L14.9753 10.7192L6.94532 19.265L7.67408 19.9498ZM15.6156 10.6447C13.8598 9.48269 12.3745 7.91399 11.2686 6.06187L10.41 6.57452C11.5903 8.55129 13.179 10.2313 15.0637 11.4786L15.6156 10.6447ZM1 24.5H24V23.5H1V24.5Z" fill="white"/>
</svg>
