<svg width="33" height="24" viewBox="0 0 33 24" fill="none" xmlns="http://www.w3.org/2000/svg">
<path d="M27.8201 9.74006C27.8201 9.74006 32.1201 10.5601 32.1201 16.8201C32.1201 16.8201 31.4201 21.9401 26.1101 22.6401H7.87009C7.13009 22.6401 6.40009 22.4801 5.73009 22.1701C3.83009 21.3001 0.460094 19.1001 1.38009 14.7301C1.38009 14.7301 2.52009 9.42006 7.20009 9.35006C7.20009 9.35006 7.39009 0.940064 15.4901 1.25006C15.4901 1.25006 20.9301 1.63006 21.8201 5.74006" stroke="#3F72AF" stroke-miterlimit="10"/>
<path d="M23.3898 6.99002L21.5298 7.78002L25.9998 10.09L26.9598 5.52002L24.4498 6.62002" stroke="#3F72AF" stroke-width="0.5" stroke-miterlimit="10" stroke-linecap="round"/>
<path d="M26.7899 5.73999L22.8999 9.24999V10.6L24.5899 9.40999" stroke="#3F72AF" stroke-width="0.5" stroke-miterlimit="10" stroke-linecap="round"/>
<path d="M6.2901 7.56009C5.6601 7.75009 5.5101 7.90009 5.3201 8.53009C5.1301 7.90009 4.9801 7.75009 4.3501 7.56009C4.9801 7.37009 5.1301 7.22009 5.3201 6.59009C5.5101 7.22009 5.6601 7.37009 6.2901 7.56009Z" fill="#3F72AF"/>
<path d="M5.4098 11.95C2.6298 14.23 2.8698 17.92 5.8698 20.17" stroke="#3F72AF" stroke-miterlimit="10" stroke-linecap="round"/>
</svg>
