<svg width="17" height="19" viewBox="0 0 17 19" fill="none" xmlns="http://www.w3.org/2000/svg">
<path d="M15.4 8.27548C15.4 13.0583 10.1684 16.2899 8.6242 17.1396C8.35697 17.2866 8.04303 17.2866 7.7758 17.1396C6.23157 16.2899 1 13.0583 1 8.27548C1 3.97113 4.48865 1.10156 8.2 1.10156C12.04 1.10156 15.4 3.97113 15.4 8.27548Z" stroke="#3F72AF" stroke-width="2"/>
<path d="M4.63952 9.0324L7.94946 12.3303C8.06445 12.4449 8.12194 12.5022 8.193 12.5049C8.1976 12.5051 8.2022 12.5051 8.2068 12.5049C8.27786 12.5022 8.33536 12.4449 8.45035 12.3303L11.7603 9.0324C12.4805 8.3148 12.5922 7.18786 12.0268 6.34288C11.1492 5.03126 9.19907 5.09854 8.41395 6.46752L8.27474 6.71026C8.24159 6.76806 8.15822 6.76806 8.12507 6.71026L7.98585 6.46752C7.20073 5.09854 5.25061 5.03126 4.37302 6.34288C3.80765 7.18786 3.91932 8.3148 4.63952 9.0324Z" stroke="#3F72AF" stroke-width="2"/>
</svg>
