<svg width="40" height="30" viewBox="0 0 40 30" fill="none" xmlns="http://www.w3.org/2000/svg">
<path fill-rule="evenodd" clip-rule="evenodd" d="M0 0V30H40V0H0Z" fill="#F7FCFF"/>
<mask id="mask0_180_169" style="mask-type:luminance" maskUnits="userSpaceOnUse" x="0" y="0" width="40" height="30">
<path fill-rule="evenodd" clip-rule="evenodd" d="M0 0V30H40V0H0Z" fill="white"/>
</mask>
<g mask="url(#mask0_180_169)">
<path fill-rule="evenodd" clip-rule="evenodd" d="M19.9998 22.7745C24.0032 22.7745 27.2486 19.3279 27.2486 15.0763C27.2486 10.8248 24.0032 7.37817 19.9998 7.37817C15.9964 7.37817 12.751 10.8248 12.751 15.0763C12.751 19.3279 15.9964 22.7745 19.9998 22.7745Z" fill="#3D58DB"/>
<mask id="mask1_180_169" style="mask-type:luminance" maskUnits="userSpaceOnUse" x="12" y="7" width="16" height="16">
<path fill-rule="evenodd" clip-rule="evenodd" d="M19.9998 22.7745C24.0032 22.7745 27.2486 19.3279 27.2486 15.0763C27.2486 10.8248 24.0032 7.37817 19.9998 7.37817C15.9964 7.37817 12.751 10.8248 12.751 15.0763C12.751 19.3279 15.9964 22.7745 19.9998 22.7745Z" fill="white"/>
</mask>
<g mask="url(#mask1_180_169)">
<path fill-rule="evenodd" clip-rule="evenodd" d="M27.5024 15.6661C27.5024 15.6661 27.0955 12.0362 24.0822 11.8391C21.0689 11.6421 20.2564 14.5011 20.0825 15.2586C19.9086 16.016 19.4685 18.0367 16.2958 18.0367C13.1231 18.0367 12.8369 12.8986 12.8369 12.8986V6.84009H27.5024V15.6661Z" fill="#E31D1C"/>
</g>
<path fill-rule="evenodd" clip-rule="evenodd" d="M9.12405 2.56543L10.2678 3.59984L4.96743 9.78972L3.82373 8.75531L9.12405 2.56543ZM11.0102 4.23926L12.1539 5.27367L7.0436 11.3739L5.8999 10.3395L11.0102 4.23926ZM14.0314 6.96825L12.8877 5.93384L7.76318 12.0803L8.90689 13.1147L14.0314 6.96825Z" fill="#272727"/>
<path fill-rule="evenodd" clip-rule="evenodd" d="M31.7047 2.13159L30.5608 3.16213L32.545 5.49067L33.689 4.46013L31.7047 2.13159ZM35.2316 6.41479L34.0876 7.44533L36.0719 9.77387L37.2158 8.74334L35.2316 6.41479ZM26.7849 6.51613L27.9288 5.4856L29.9131 7.81414L28.7691 8.84468L26.7849 6.51613ZM31.4557 9.7688L30.3117 10.7993L32.296 13.1279L33.4399 12.0973L31.4557 9.7688ZM28.7444 4.78908L29.8884 3.75854L35.4116 10.4846L34.2677 11.5152L28.7444 4.78908Z" fill="#272727"/>
<path fill-rule="evenodd" clip-rule="evenodd" d="M32.5686 17.8041L31.415 16.7695L29.4141 19.1072L30.5676 20.1417L32.5686 17.8041ZM29.2044 21.9179L28.0508 20.8833L26.0498 23.2209L27.2034 24.2555L29.2044 21.9179ZM35.0581 20.0413L36.2117 21.0758L34.2107 23.4134L33.0571 22.3789L35.0581 20.0413ZM33.012 25.285L31.8584 24.2505L29.8574 26.5881L31.011 27.6227L33.012 25.285ZM29.9578 22.4727L31.1114 23.5072L29.0227 26.0034L27.8691 24.9688L29.9578 22.4727ZM34.5381 19.348L33.3846 18.3135L31.2959 20.8097L32.4495 21.8442L34.5381 19.348Z" fill="#272727"/>
<path fill-rule="evenodd" clip-rule="evenodd" d="M8.00806 18.6125L9.15207 17.5808L14.2578 23.4313L13.1138 24.463L8.00806 18.6125ZM9.19887 23.7297L10.3429 22.698L12.4995 25.0674L11.3555 26.0991L9.19887 23.7297ZM5.38679 20.8635L4.24279 21.8952L9.37504 27.8244L10.519 26.7927L5.38679 20.8635ZM6.20076 20.1904L7.34477 19.1587L9.21436 21.351L8.07035 22.3827L6.20076 20.1904Z" fill="#272727"/>
</g>
</svg>
