<svg width="104" height="52" viewBox="0 0 104 52" fill="none" xmlns="http://www.w3.org/2000/svg">
<path d="M96.4672 6.1693L94.4344 5.47164C92.8115 4.91467 92 4.63618 92 4.1244C92 3.61262 92.8115 3.33413 94.4344 2.77716L101.271 0.430694C102.413 0.0387905 102.984 -0.157161 103.286 0.153146C103.587 0.463453 103.397 1.05131 103.016 2.22702L100.737 9.26642C100.196 10.9373 99.9257 11.7728 99.4286 11.7728C98.9315 11.7728 98.6611 10.9373 98.1201 9.26642L97.4425 7.17347L100.66 3.86118C100.929 3.58388 100.929 3.1343 100.66 2.85701C100.39 2.57971 99.9536 2.57971 99.6843 2.85701L96.4672 6.1693Z" fill="#F9F7F7"/>
<path d="M38.6501 8.43994H43.5501V51.1399H38.6501V39.2399H31.4501L31.8001 34.5899H38.6501V23.7899H31.8001L31.4501 19.1399H38.6501V8.43994ZM17.6001 9.43994C25.0501 9.43994 30.2001 15.7399 30.2001 29.2899C30.2001 42.8399 25.0501 49.1399 17.6001 49.1399C10.1001 49.1399 4.9501 42.8399 4.9501 29.2899C4.9501 15.7399 10.1001 9.43994 17.6001 9.43994ZM17.6001 44.5899C22.0001 44.5899 25.2501 40.1399 25.2501 29.2899C25.2501 18.4899 22.0001 13.9899 17.6001 13.9899C13.1501 13.9899 9.8501 18.4899 9.8501 29.2899C9.8501 40.1399 13.1501 44.5899 17.6001 44.5899ZM78.3958 16.4899H86.6958V8.43994H91.6458V32.4399H86.6958V20.7899H78.3958V16.4899ZM66.4958 22.7399C63.5458 27.3899 58.5958 30.5899 52.2958 31.1899V26.7399C59.3458 25.7899 63.7458 20.7399 64.3458 13.7899H52.8458V9.53994H80.0958V13.7899H69.2958C69.1958 15.5399 68.8458 17.1899 68.3458 18.7899L81.4958 27.0899L79.0458 30.7899L66.4958 22.7399ZM73.5458 33.8399C83.8958 33.8399 91.9958 36.2399 91.9958 42.4899C91.9958 48.7399 83.8958 51.1399 73.5458 51.1399C63.1958 51.1399 55.0958 48.7399 55.0958 42.4899C55.0958 36.2399 63.1958 33.8399 73.5458 33.8399ZM73.5458 47.0899C80.8958 47.0899 86.7458 45.6399 86.7458 42.4899C86.7458 39.3399 80.8958 37.8899 73.5458 37.8899C66.1958 37.8899 60.3458 39.3399 60.3458 42.4899C60.3458 45.6399 66.1958 47.0899 73.5458 47.0899Z" fill="#F9F7F7"/>
</svg>
