<svg width="76" height="38" viewBox="0 0 76 38" fill="none" xmlns="http://www.w3.org/2000/svg">
<path d="M26.635 4.75H30.065V34.64H26.635V26.31H21.595L21.84 23.055H26.635V15.495H21.84L21.595 12.24H26.635V4.75ZM11.9 5.45C17.115 5.45 20.72 9.86 20.72 19.345C20.72 28.83 17.115 33.24 11.9 33.24C6.65 33.24 3.045 28.83 3.045 19.345C3.045 9.86 6.65 5.45 11.9 5.45ZM11.9 30.055C14.98 30.055 17.255 26.94 17.255 19.345C17.255 11.785 14.98 8.635 11.9 8.635C8.785 8.635 6.475 11.785 6.475 19.345C6.475 26.94 8.785 30.055 11.9 30.055ZM54.457 10.385H60.267V4.75H63.732V21.55H60.267V13.395H54.457V10.385ZM46.127 14.76C44.062 18.015 40.597 20.255 36.187 20.675V17.56C41.122 16.895 44.202 13.36 44.622 8.495H36.572V5.52H55.647V8.495H48.087C48.017 9.72 47.772 10.875 47.422 11.995L56.627 17.805L54.912 20.395L46.127 14.76ZM51.062 22.53C58.307 22.53 63.977 24.21 63.977 28.585C63.977 32.96 58.307 34.64 51.062 34.64C43.817 34.64 38.147 32.96 38.147 28.585C38.147 24.21 43.817 22.53 51.062 22.53ZM51.062 31.805C56.207 31.805 60.302 30.79 60.302 28.585C60.302 26.38 56.207 25.365 51.062 25.365C45.917 25.365 41.822 26.38 41.822 28.585C41.822 30.79 45.917 31.805 51.062 31.805Z" fill="#112D4E"/>
<path d="M68.0788 6.81239L65.7676 6.04201C63.9225 5.42698 63 5.11946 63 4.55433C63 3.9892 63.9225 3.68169 65.7676 3.06665L73.5408 0.47559C74.8391 0.042834 75.4882 -0.173544 75.8309 0.16911C76.1735 0.511764 75.9572 1.1609 75.5244 2.45916L72.9333 10.2324C72.3183 12.0775 72.0108 13 71.4457 13C70.8805 13 70.573 12.0775 69.958 10.2324L69.1876 7.92124L72.8452 4.26367C73.1514 3.95747 73.1514 3.46102 72.8452 3.15482C72.539 2.84862 72.0425 2.84862 71.7363 3.15482L68.0788 6.81239Z" fill="#112D4E"/>
</svg>
